# xmcd
#
# Track frame offsets:
#	150
#	12638
#	26808
#	45398
#	65553
#	88195
#	93898
#	106978
#	117545
#	128125
#	139380
#	151810
#	162870
#	176075
#	189483
#	203283
#	215925
#	232845
#	244595
#	258343
#	273570
#	283645
#	296550
#	306800
#	315648
#
# Disc length: 4376 seconds
#
# Revision: 2
# Processed by: cddbd v1.4PL0 Copyright (c) Steve Scherf et al.
# Submitted via: MusicWizard 6.0.2
#
DISCID=6c111619
DTITLE=Frank Sinatra - The Complete Reprise Studio Recordings  Disc 8
DYEAR=1900
DGENRE=Vocal
TTITLE0=I Can't Believe I'm Losing You
TTITLE1=My Kind Of Town
TTITLE2=I Like To Lead When I Dance
TTITLE3=Style
TTITLE4=Mister Booze
TTITLE5=Don't Be A Do-Badder (Finale)
TTITLE6=The Best Is Yet To Come
TTITLE7=I Wanna Be Around
TTITLE8=I Believe In You
TTITLE9=Flay Me To The Moon (In Other Words)
TTITLE10=Hello, Dolly!
TTITLE11=The Good Life
TTITLE12=I Wish You Love
TTITLE13=I Can't Stop Loving You
TTITLE14=More (Theme From Mondo Cane)
TTITLE15=Wives And Lovers
TTITLE16=An Old-Fashioned Christmas
TTITLE17=I Heard The Bells On Christmas Day
TTITLE18=The Little Drummer Boy
TTITLE19=Go Tell It On The Mountain
TTITLE20=We Wish You The Merriest
TTITLE21=Softly, As I Leave You
TTITLE22=Then Suddenly Love
TTITLE23=Since Marie Has Left Paree
TTITLE24=Available
EXTD=
EXTT0=
EXTT1=
EXTT2=
EXTT3=
EXTT4=
EXTT5=
EXTT6=
EXTT7=
EXTT8=
EXTT9=
EXTT10=
EXTT11=
EXTT12=
EXTT13=
EXTT14=
EXTT15=
EXTT16=
EXTT17=
EXTT18=
EXTT19=
EXTT20=
EXTT21=
EXTT22=
EXTT23=
EXTT24=
PLAYORDER=
